<svg width="12" height="12" viewBox="0 0 12 12" fill="none" xmlns="http://www.w3.org/2000/svg">
<path d="M11.3333 3.33333H9.46C9.16 2.81333 8.74667 2.36667 8.24667 2.02667L9.33333 0.94L8.39333 0L6.94667 1.44667C6.64 1.37333 6.32667 1.33333 6 1.33333C5.67333 1.33333 5.36 1.37333 5.06 1.44667L3.60667 0L2.66667 0.94L3.74667 2.02667C3.25333 2.36667 2.84 2.81333 2.54 3.33333H0.666666V4.66667H2.06C2.02667 4.88667 2 5.10667 2 5.33333V6H0.666666V7.33333H2V8C2 8.22667 2.02667 8.44667 2.06 8.66667H0.666666V10H2.54C3.23333 11.1933 4.52 12 6 12C7.48 12 8.76667 11.1933 9.46 10H11.3333V8.66667H9.94C9.97333 8.44667 10 8.22667 10 8V7.33333H11.3333V6H10V5.33333C10 5.10667 9.97333 4.88667 9.94 4.66667H11.3333V3.33333ZM7.33333 8.66667H4.66667V7.33333H7.33333V8.66667ZM7.33333 6H4.66667V4.66667H7.33333V6Z" fill="white"/>
</svg>
