<svg width="13" height="16" viewBox="0 0 13 16" xmlns="http://www.w3.org/2000/svg">
<path d="M8.42471 14.5396C8.83531 14.5396 9.20192 14.511 9.52454 14.4537C9.86182 14.3821 10.1331 14.2962 10.3384 14.196L11.1523 11.0604H13L12.912 15.1624C12.3401 15.4058 11.6802 15.6063 10.9323 15.7638C10.1991 15.9213 9.28257 16 8.18274 16C7.00959 16 5.91709 15.8568 4.90525 15.5705C3.90807 15.2698 3.04287 14.8045 2.30964 14.1745C1.59109 13.5445 1.02651 12.7284 0.615905 11.7262C0.205302 10.7096 0 9.49262 0 8.07517C0 6.58613 0.234631 5.32617 0.703892 4.2953C1.17315 3.25011 1.78906 2.41253 2.55161 1.78255C3.32882 1.15257 4.21602 0.701566 5.2132 0.42953C6.22504 0.143177 7.25155 0 8.29272 0C9.27524 0 10.1478 0.0572708 10.9103 0.171812C11.6875 0.286354 12.3108 0.436689 12.78 0.622818L12.868 4.81074H11.0203L10.0964 1.7396C9.90581 1.63937 9.65652 1.56779 9.34856 1.52483C9.04061 1.48188 8.71799 1.4604 8.38071 1.4604C7.28088 1.4604 6.43034 1.95436 5.8291 2.94228C5.22786 3.9302 4.92724 5.5481 4.92724 7.79597C4.92724 10.2157 5.2132 11.9481 5.78511 12.9933C6.35702 14.0242 7.23689 14.5396 8.42471 14.5396Z" />
</svg>
