<svg version="1.1" xmlns="http://www.w3.org/2000/svg" x="0px" y="0px"
     viewBox="0 0 256 256" enable-background="new 0 0 256 256" xml:space="preserve">
<g>
    <path fill="#333333" d="M39.3,28.8l187.9,187.9l-10.4,10.4L28.8,39.3L39.3,28.8z"/>
    <path fill="#333333" d="M128,160.2c3.4,0,6.7-0.5,9.8-1.5l-40.5-40.5c-1,3.1-1.5,6.4-1.5,9.8C95.8,145.8,110.2,160.2,128,160.2z"/>
    <path fill="#333333" d="M102,81.1c7.7-4.3,16.6-6.7,26-6.7c29.6,0,53.6,24,53.6,53.6c0,9.4-2.5,18.3-6.7,26l29.1,29.1c18.7-14,33.3-33.1,42-55.1c-18.6-47.1-64.4-80.5-118-80.5c-17.6,0-34.3,3.6-49.5,10.1L102,81.1z"/>
    <path fill="#333333" d="M128,95.8c-3.4,0-6.7,0.5-9.8,1.5l40.5,40.5c1-3.1,1.5-6.4,1.5-9.8C160.2,110.2,145.8,95.8,128,95.8z"/>
    <path fill="#333333" d="M154,174.9c-7.7,4.3-16.6,6.7-26,6.7c-29.6,0-53.6-24-53.6-53.6c0-9.4,2.5-18.3,6.7-26L52,72.9c-18.7,14-33.3,33-42,55.1c18.6,47.1,64.4,80.5,118,80.5c17.6,0,34.3-3.6,49.5-10.1L154,174.9z"/>
</g>
</svg>
