<svg width="14" height="14" viewBox="0 0 14 14" fill="none" xmlns="http://www.w3.org/2000/svg">
<path d="M7.00004 0.333313C3.31115 0.333313 0.333374 3.31109 0.333374 6.99998C0.333374 10.6889 3.31115 13.6666 7.00004 13.6666C10.6889 13.6666 13.6667 10.6889 13.6667 6.99998C13.6667 3.31109 10.6889 0.333313 7.00004 0.333313ZM7.7556 9.6222V9.94813C7.68152 10.0074 7.57782 10.0518 7.47411 10.1111C7.37041 10.1555 7.25189 10.2 7.13337 10.2444C7.01486 10.2889 6.89634 10.3185 6.77782 10.3333C6.6593 10.3481 6.54078 10.3629 6.43708 10.3629C6.20004 10.3629 6.05189 10.3185 5.963 10.2296C5.8593 10.1407 5.81486 10.037 5.81486 9.93331C5.81486 9.81479 5.82967 9.69628 5.84449 9.57776C5.8593 9.45924 5.88893 9.34072 5.91856 9.19257L6.54078 6.36294L5.963 6.22961V5.9185C6.05189 5.88887 6.17041 5.84442 6.33337 5.79998C6.48152 5.75554 6.64449 5.72591 6.82226 5.69628C7.00004 5.66665 7.163 5.63702 7.32597 5.6222C7.48893 5.60739 7.63708 5.59257 7.77041 5.59257L7.93337 5.69628L7.10374 9.6222H7.7556ZM8.03708 4.64442C7.90374 4.76294 7.71115 4.8222 7.48893 4.8222C7.28152 4.8222 7.10374 4.76294 6.9556 4.64442C6.82226 4.52591 6.74819 4.37776 6.74819 4.18517C6.74819 3.97776 6.82226 3.81479 6.9556 3.69628C7.08893 3.57776 7.26671 3.5185 7.48893 3.5185C7.72597 3.5185 7.90374 3.57776 8.03708 3.69628C8.17041 3.81479 8.24449 3.97776 8.24449 4.18517C8.22967 4.37776 8.17041 4.52591 8.03708 4.64442Z" fill="#333333"/>
</svg>
