<svg width="20" height="50" viewBox="0 0 79 111" fill="none" xmlns="http://www.w3.org/2000/svg">
<g clip-path="url(#clip0)">
<path d="M9.42001 110.76L12.05 98.26L20.6 81.03L26 84.06L17.2 101.42L9.42001 110.76Z" fill="#333333"/>
<path opacity="0.7" fill-rule="evenodd" clip-rule="evenodd" d="M25.6508 74.7959C25.7746 74.8571 25.8253 75.0071 25.7641 75.1308L14.4841 97.9408C14.4229 98.0646 14.2729 98.1153 14.1492 98.0541C14.0254 97.9929 13.9747 97.8429 14.0359 97.7192L25.3159 74.9092C25.3771 74.7854 25.5271 74.7347 25.6508 74.7959Z" fill="white"/>
<path d="M56.51 82.78C51.99 91.33 33.03 95.98 17.92 87.99C2.81 80 -2.71 62.4 1.81 53.85C6.33 45.3 24.39 41.46 39.49 49.45C54.59 57.44 61.03 74.23 56.51 82.78Z" fill="#007ABC"/>
<path d="M56.5113 82.7046C51.9913 91.2546 33.0313 95.9046 17.9213 87.9146C2.81135 79.9246 -2.70865 62.3246 1.81135 53.7746C6.33135 45.2246 24.3913 41.3846 39.4913 49.3746C54.5913 57.3646 61.0313 74.1546 56.5113 82.7046Z" fill="#007ABC"/>
<path d="M56.5113 82.7046C51.9913 91.2546 33.0313 95.9046 17.9213 87.9146C2.81135 79.9246 -2.70865 62.3246 1.81135 53.7746C6.33135 45.2246 24.3913 41.3846 39.4913 49.3746C54.5913 57.3646 61.0313 74.1546 56.5113 82.7046Z" fill="#005689"/>
<path d="M57.69 81.47C53.17 90.02 34.21 94.67 19.1 86.68C3.99 78.69 -1.53 61.09 2.99 52.54C7.51 43.99 25.57 40.15 40.67 48.14C55.77 56.13 62.21 72.92 57.69 81.47Z" fill="#00B2FF"/>
<path d="M57.69 81.47C56.26 84.18 53.37 86.5 49.61 88.14L17.2 57.64L30.29 60.96H54.55C59.18 68.31 60.39 76.36 57.69 81.47Z" fill="#007ABC"/>
<path d="M57.69 81.47C56.26 84.18 53.37 86.5 49.61 88.14L17.2 57.64L30.29 60.96H54.55C59.18 68.31 60.39 76.36 57.69 81.47Z" fill="#005689"/>
<path d="M59.75 32.53L45.8 70.26C40.13 71.01 33.79 69.93 27.88 66.8C23.44 64.45 19.81 61.25 17.2 57.64L36.19 27.12L59.75 32.53Z" fill="#00B2FF"/>
<path d="M77.28 30.74C71.74 41.22 56.75 44.17 43.82 37.33C30.89 30.49 24.88 16.45 30.42 5.95999" fill="#007ABC"/>
<path d="M77.28 30.74C71.74 41.22 56.75 44.17 43.82 37.33C30.89 30.49 24.88 16.45 30.42 5.95999" fill="#005689"/>
<path d="M77.3882 30.5347C81.2611 23.2114 73.9125 11.728 60.9747 4.8859C48.0369 -1.95622 34.4091 -1.56614 30.5362 5.75715C26.6633 13.0804 34.0119 24.5638 46.9497 31.4059C59.8875 38.248 73.5153 37.8579 77.3882 30.5347Z" fill="#00B2FF"/>
</g>
<defs>
<clipPath id="clip0">
<rect width="78.14" height="110.76" fill="white" transform="translate(0.279999)"/>
</clipPath>
</defs>
</svg>
