<svg width="50" height="50" viewBox="0 0 50 50" fill="none" xmlns="http://www.w3.org/2000/svg">
<circle cx="25" cy="25" r="25" fill="#F3C100"/>
<g clip-path="url(#clip0)">
<path d="M17.4581 42.1569L18.2501 38.2843L20.8246 32.9464L22.4507 33.8851L19.8008 39.2633L17.4581 42.1569Z" fill="#999999"/>
<path opacity="0.7" fill-rule="evenodd" clip-rule="evenodd" d="M22.3455 31.0151C22.3828 31.0341 22.398 31.0805 22.3796 31.1188L18.983 38.1855C18.9646 38.2238 18.9194 38.2395 18.8822 38.2205C18.8449 38.2016 18.8296 38.1551 18.848 38.1168L22.2447 31.0502C22.2631 31.0118 22.3082 30.9961 22.3455 31.0151Z" fill="white"/>
<path d="M31.6378 33.4886C30.2767 36.1374 24.5675 37.578 20.0176 35.1027C15.4677 32.6273 13.8055 27.1748 15.1666 24.526C16.5276 21.8772 21.9659 20.6876 26.5127 23.1629C31.0596 25.6382 32.9988 30.8398 31.6378 33.4886Z" fill="#AB0613"/>
<path d="M31.6382 33.4652C30.2771 36.114 24.5679 37.5546 20.018 35.0793C15.4681 32.604 13.8059 27.1515 15.167 24.5026C16.5281 21.8538 21.9663 20.6642 26.5132 23.1395C31.06 25.6148 32.9993 30.8164 31.6382 33.4652Z" fill="#AB0613"/>
<path d="M31.9931 33.0827C30.6321 35.7316 24.9228 37.1721 20.3729 34.6968C15.823 32.2215 14.1609 26.769 15.5219 24.1202C16.883 21.4713 22.3212 20.2817 26.8681 22.757C31.415 25.2323 33.3542 30.4339 31.9931 33.0827Z" fill="#C70000"/>
<path d="M31.9931 33.0827C31.5625 33.9223 30.6923 34.641 29.5601 35.1491L19.8008 25.7001L23.7425 26.7287H31.0476C32.4418 29.0057 32.8061 31.4997 31.9931 33.0827Z" fill="#AB0613"/>
<path d="M32.6134 17.921L28.4128 29.6099C26.7055 29.8422 24.7964 29.5076 23.0168 28.5379C21.6798 27.8099 20.5867 26.8185 19.8008 25.7002L25.5191 16.245L32.6134 17.921Z" fill="#C70000"/>
<path d="M37.892 17.3665C36.2238 20.6132 31.7101 21.5271 27.8166 19.4081C23.9231 17.289 22.1134 12.9394 23.7816 9.68956" fill="#AB0613"/>
<path d="M37.9246 17.3028C39.0908 15.0341 36.878 11.4765 32.9822 9.3568C29.0864 7.23709 24.9828 7.35794 23.8166 9.62671C22.6504 11.8955 24.8632 15.4531 28.759 17.5728C32.6548 19.6925 36.7584 19.5716 37.9246 17.3028Z" fill="#C70000"/>
</g>
<defs>
<clipPath id="clip0">
<rect width="23.5294" height="34.3137" fill="white" transform="translate(14.7059 7.84314)"/>
</clipPath>
</defs>
</svg>
