<svg width="79" height="111" viewBox="0 0 79 111" fill="none" xmlns="http://www.w3.org/2000/svg">
<g clip-path="url(#clip0)">
<path d="M9.14 110.76L11.77 98.26L20.32 81.03L25.72 84.06L16.92 101.42L9.14 110.76Z" fill="#999999"/>
<path opacity="0.7" fill-rule="evenodd" clip-rule="evenodd" d="M25.3708 74.7959C25.4946 74.8571 25.5453 75.0071 25.4841 75.1308L14.2041 97.9408C14.1429 98.0646 13.993 98.1153 13.8692 98.0541C13.7454 97.9929 13.6947 97.8429 13.7559 97.7192L25.0359 74.9092C25.0971 74.7854 25.2471 74.7347 25.3708 74.7959Z" fill="white"/>
<path d="M56.23 82.78C51.71 91.33 32.75 95.98 17.64 87.99C2.53 80 -2.99 62.4 1.53 53.85C6.05 45.3 24.11 41.46 39.21 49.45C54.31 57.44 60.75 74.23 56.23 82.78Z" fill="#AB0613"/>
<path d="M56.2313 82.7046C51.7113 91.2546 32.7513 95.9046 17.6413 87.9146C2.53135 79.9246 -2.98865 62.3246 1.53135 53.7746C6.05135 45.2246 24.1113 41.3846 39.2113 49.3746C54.3113 57.3646 60.7513 74.1546 56.2313 82.7046Z" fill="#AB0613"/>
<g style="mix-blend-mode:multiply">
<path d="M56.2313 82.7046C51.7113 91.2546 32.7513 95.9046 17.6413 87.9146C2.53135 79.9246 -2.98865 62.3246 1.53135 53.7746C6.05135 45.2246 24.1113 41.3846 39.2113 49.3746C54.3113 57.3646 60.7513 74.1546 56.2313 82.7046Z" fill="#DCDCDC"/>
</g>
<path d="M57.41 81.47C52.89 90.02 33.93 94.67 18.82 86.68C3.71 78.69 -1.81 61.09 2.71 52.54C7.23 43.99 25.29 40.15 40.39 48.14C55.49 56.13 61.93 72.92 57.41 81.47Z" fill="#C70000"/>
<path d="M57.41 81.47C55.98 84.18 53.09 86.5 49.33 88.14L16.92 57.64L30.01 60.96H54.27C58.9 68.31 60.11 76.36 57.41 81.47Z" fill="#AB0613"/>
<g style="mix-blend-mode:multiply">
<g style="mix-blend-mode:multiply">
<path d="M57.41 81.47C55.98 84.18 53.09 86.5 49.33 88.14L16.92 57.64L30.01 60.96H54.27C58.9 68.31 60.11 76.36 57.41 81.47Z" fill="#DCDCDC"/>
</g>
</g>
<path d="M59.47 32.53L45.52 70.26C39.85 71.01 33.51 69.93 27.6 66.8C23.16 64.45 19.53 61.25 16.92 57.64L35.91 27.12L59.47 32.53Z" fill="#C70000"/>
<path d="M77 30.74C71.46 41.22 56.47 44.17 43.54 37.33C30.61 30.49 24.6 16.45 30.14 5.96" fill="#AB0613"/>
<g style="mix-blend-mode:multiply">
<path d="M77 30.74C71.46 41.22 56.47 44.17 43.54 37.33C30.61 30.49 24.6 16.45 30.14 5.96" fill="#DCDCDC"/>
</g>
<path d="M77.1082 30.5347C80.9811 23.2114 73.6325 11.728 60.6947 4.8859C47.7569 -1.95621 34.1291 -1.56614 30.2562 5.75715C26.3833 13.0805 33.7319 24.5638 46.6697 31.4059C59.6075 38.248 73.2353 37.858 77.1082 30.5347Z" fill="#C70000"/>
</g>
<defs>
<clipPath id="clip0">
<rect width="78.14" height="110.76" fill="white"/>
</clipPath>
</defs>
</svg>
