<svg width="21" height="21" viewBox="0 0 21 21" fill="none" xmlns="http://www.w3.org/2000/svg">
<g clip-path="url(#clip0_37_5069)">
<path fill-rule="evenodd" clip-rule="evenodd" d="M10.6666 10.625V7.29166H11.3333C11.6999 7.29166 11.9999 6.99166 11.9999 6.62499C11.9999 6.25833 11.6999 5.95833 11.3333 5.95833H4.66659C4.29992 5.95833 3.99992 6.25833 3.99992 6.62499C3.99992 6.99166 4.29992 7.29166 4.66659 7.29166H5.33325V10.625C5.33325 11.7317 4.43992 12.625 3.33325 12.625V13.9583H7.31325V18.625L7.97992 19.2917L8.64659 18.625V13.9583H12.6666V12.625C11.5599 12.625 10.6666 11.7317 10.6666 10.625Z" fill="#333333"/>
</g>
<path d="M20.5 2.20833C20.5 2.07573 20.4473 1.94855 20.3536 1.85478L19.5202 1.02145C19.4265 0.927678 19.2993 0.875 19.1667 0.875H10.8333C10.7007 0.875 10.5735 0.927678 10.4798 1.02145L9.64645 1.85478C9.55268 1.94855 9.5 2.07573 9.5 2.20833V7.20833C9.5 7.33949 9.55153 7.46539 9.64349 7.5589L10.4629 8.39224C10.5569 8.48783 10.6854 8.54167 10.8194 8.54167H11.7222V10.8194C11.7222 11.0956 11.9461 11.3194 12.2222 11.3194H12.7639C12.9389 11.3194 13.1011 11.228 13.1917 11.0783L14.7263 8.54167H19.1667C19.2993 8.54167 19.4265 8.48899 19.5202 8.39522L20.3536 7.56189C20.4473 7.46812 20.5 7.34094 20.5 7.20833V2.20833Z" fill="#333333" stroke="white" stroke-linejoin="round"/>
<defs>
<clipPath id="clip0_37_5069">
<rect width="16" height="16" fill="white" transform="translate(0 4.625)"/>
</clipPath>
</defs>
</svg>
